:SAMPLES-PER-SECOND 30
:FULLY-SPECIFIED
:DEGREES
110
root  -31.493 40.8224 6.56503 -126.453 -84.5424 134.162
RightUpLeg  -5.67461 -13.9752 -17.1465
RightLeg  3.94471 -6.89243 1.98237
RightFoot  0.206105 -0.94655 9.35531
RightToes  0.000482159 0.542163 -0.142577
Spine  23.3621 2.71583 12.6033
Spine1  8.10639 9.61708 -15.3045
HEad  -30.5443 -22.5804 10.0164
LeftShoulder1  8.379 -14.0279 -41.4545
LeftArm  -8.29293 19.5772 -26.5968
LeftForeArm  32.4387 -23.6242 -3.37849
LeftHand  -0.25398 0.0180481 5.50724
RightShoulder  3.47943 8.19118 23.566
RightArm  -34.3917 52.1259 7.60153
RightForeArm  22.5895 57.7577 16.0232
RightHand  -1.63378 2.68124 -23.4955
LeftUpLeg  -15.2171 0.621374 -3.63855
LeftLeg  2.30531 11.7362 -5.10976
LeftFoot  5.33306 -1.06509 7.03644
LeftToes  1.06244e-005 4.65856e-005 -8.18505e-006
111
root  -31.5779 40.8229 6.67394 -131.953 -83.677 139.666
RightUpLeg  -5.69792 -14.005 -17.4569
RightLeg  3.44956 -5.98998 1.93495
RightFoot  0.512111 -0.985534 9.5063
RightToes  0.000482159 0.542163 -0.142577
Spine  23.6399 2.6764 13.1046
Spine1  7.85223 9.94263 -16.3134
HEad  -31.9275 -23.2136 10.899
LeftShoulder1  8.35462 -14.0054 -41.3817
LeftArm  -9.10007 18.2781 -26.2429
LeftForeArm  32.5897 -24.6283 -3.55996
LeftHand  -0.25398 0.0180481 5.50724
RightShoulder  3.43243 8.10267 23.3799
RightArm  -42.042 52.2071 6.90065
RightForeArm  28.0852 64.3712 21.3982
RightHand  -2.16386 3.99956 -26.4669
LeftUpLeg  -15.0249 0.567876 -3.85596
LeftLeg  2.22479 12.6865 -5.15927
LeftFoot  5.13617 -1.05671 7.07241
LeftToes  1.06244e-005 4.65856e-005 -8.18505e-006
112
root  -31.6618 40.8232 6.76801 -134.052 -83.0165 141.938
RightUpLeg  -5.73476 -14.1044 -17.779
RightLeg  2.87951 -5.31178 1.91997
RightFoot  0.779519 -1.0343 9.76958
RightToes  0.000482159 0.542163 -0.142577
Spine  23.7627 2.77499 13.4616
Spine1  7.49881 10.2291 -16.8893
HEad  -33.9629 -24.0216 11.787
LeftShoulder1  8.41612 -14.0573 -41.5774
LeftArm  -10.5495 17.032 -25.8951
LeftForeArm  33.3257 -26.1451 -3.84251
LeftHand  -0.25398 0.0180481 5.50724
RightShoulder  3.36246 7.8729 23.3616
RightArm  -48.3643 53.1646 6.35829
RightForeArm  31.6187 69.5776 27.6332
RightHand  -3.10676 6.55561 -30.0035
LeftUpLeg  -14.8856 0.48033 -4.10751
LeftLeg  1.83239 13.3672 -5.34494
LeftFoot  5.072 -1.08443 7.29458
LeftToes  1.06244e-005 4.65856e-005 -8.18505e-006
113
root  -31.7201 40.8157 6.86868 -135.666 -82.548 143.608
RightUpLeg  -5.63043 -14.1552 -18.0375
RightLeg  2.32319 -4.76042 1.89228
RightFoot  1.03894 -1.08556 10.0502
RightToes  0.000482159 0.542163 -0.142577
Spine  23.7119 2.7625 13.7984
Spine1  7.10003 10.2777 -17.1648
HEad  -35.3624 -24.7611 12.2149
LeftShoulder1  8.41548 -14.1137 -41.4303
LeftArm  -11.8626 16.21 -26.164
LeftForeArm  33.302 -27.5655 -4.14835
LeftHand  -0.25398 0.0180481 5.50724
RightShoulder  2.99367 7.31235 21.3436
RightArm  -52.0783 56.9264 5.38444
RightForeArm  27.1929 64.2179 22.1464
RightHand  -3.24103 7.164 -29.768
LeftUpLeg  -14.7782 0.488841 -4.2936
LeftLeg  1.6692 13.871 -5.52749
LeftFoot  4.92867 -1.11674 7.59056
LeftToes  1.06244e-005 4.65856e-005 -8.18505e-006
114
root  -31.7595 40.8075 6.96847 -136.999 -82.1892 144.836
RightUpLeg  -5.38595 -14.1186 -18.254
RightLeg  1.82492 -4.37022 1.78218
RightFoot  1.28082 -1.12857 10.2581
RightToes  0.000482159 0.542163 -0.142577
Spine  23.5736 2.66638 14.494
Spine1  6.61427 10.4228 -18.0164
HEad  -35.9263 -25.6985 12.8675
LeftShoulder1  8.2268 -14.0956 -40.4682
LeftArm  -12.1529 15.2969 -26.9987
LeftForeArm  33.1165 -28.5171 -4.36667
LeftHand  -0.25398 0.0180481 5.50724
RightShoulder  2.35461 6.53139 16.8097
RightArm  -54.4697 61.5174 3.11081
RightForeArm  22.2361 47.4812 10.5713
RightHand  -2.35276 5.0959 -25.5658
LeftUpLeg  -14.6743 0.496626 -4.47155
LeftLeg  1.7893 14.2913 -5.58957
LeftFoot  4.77865 -1.12583 7.73195
LeftToes  1.06244e-005 4.65856e-005 -8.18505e-006
115
root  -31.82 40.8134 7.02958 -133.776 -82.3296 141.595
RightUpLeg  -4.88607 -14.1629 -18.6198
RightLeg  1.28759 -4.69921 1.67661
RightFoot  1.41576 -1.16366 10.469
RightToes  0.000482159 0.542163 -0.142577
Spine  23.4874 2.7713 15.2375
Spine1  5.75064 10.7576 -19.0902
HEad  -36.7654 -26.8802 14.3238
LeftShoulder1  7.99865 -14.0417 -39.3742
LeftArm  -11.7818 14.1927 -27.629
LeftForeArm  34.9331 -30.054 -4.61696
LeftHand  -0.25398 0.0180481 5.50724
RightShoulder  1.84446 5.85563 12.7318
RightArm  -55.0058 62.1654 2.06525
RightForeArm  23.2717 34.4089 6.09406
RightHand  -0.995597 0.904077 -18.7405
LeftUpLeg  -14.5243 0.265033 -4.82854
LeftLeg  1.62715 14.0706 -5.67472
LeftFoot  4.95466 -1.14023 7.74039
LeftToes  1.06244e-005 4.65856e-005 -8.18505e-006
116
root  -31.9303 40.8287 7.03121 -119.206 -83.3406 127.303
RightUpLeg  -3.90996 -14.4237 -19.2108
RightLeg  0.637436 -6.40832 1.7917
RightFoot  1.34303 -1.19272 10.7849
RightToes  0.000482159 0.542163 -0.142577
Spine  23.4448 3.09848 15.3275
Spine1  4.44998 10.7515 -18.759
HEad  -38.7831 -27.5799 15.4487
LeftShoulder1  7.98527 -14.0233 -39.3462
LeftArm  -11.6999 13.7521 -27.5192
LeftForeArm  39.0027 -33.61 -5.24331
LeftHand  -0.25398 0.0180481 5.50724
RightShoulder  1.77292 5.47731 12.7626
RightArm  -56.0032 58.0139 4.33617
RightForeArm  24.6728 38.8874 7.48447
RightHand  -0.749157 -0.662394 -18.1066
LeftUpLeg  -14.4065 -0.308171 -5.4187
LeftLeg  0.981508 12.4856 -5.86517
LeftFoot  5.52739 -1.19211 7.79892
LeftToes  1.06244e-005 4.65856e-005 -8.18505e-006
117
root  -32.0741 40.8268 6.99605 -89.3174 -84.2683 97.971
RightUpLeg  -2.67056 -14.6984 -19.7023
RightLeg  0.0953668 -9.38626 2.15371
RightFoot  1.03301 -1.19873 11.0906
RightToes  0.000482159 0.542163 -0.142577
Spine  23.2583 3.36422 14.8986
Spine1  3.25383 10.1798 -16.613
HEad  -41.6578 -27.0026 14.5674
LeftShoulder1  8.21274 -14.0186 -40.5869
LeftArm  -11.9151 14.2703 -26.8513
LeftForeArm  42.9777 -38.8503 -6.37853
LeftHand  -0.25398 0.0180481 5.50724
RightShoulder  2.08001 5.47689 16.4739
RightArm  -60.0842 52.2903 6.59418
RightForeArm  30.5909 57.792 16.6612
RightHand  -1.51397 1.75181 -24.2627
LeftUpLeg  -14.568 -1.047 -6.03146
LeftLeg  0.449586 9.81044 -5.92989
LeftFoot  6.09046 -1.26143 7.97188
LeftToes  1.06244e-005 4.65856e-005 -8.18505e-006
118
root  -32.2077 40.8034 6.97821 -58.7154 -83.9198 68.0556
RightUpLeg  -1.89053 -14.7955 -19.7371
RightLeg  -0.0856413 -12.2567 2.54111
RightFoot  0.673766 -1.17409 11.1668
RightToes  0.000482159 0.542163 -0.142577
Spine  22.7981 3.49751 15.0706
Spine1  2.76588 9.75947 -14.6036
HEad  -44.4192 -25.4974 12.0857
LeftShoulder1  8.47379 -14.0008 -42.0295
LeftArm  -12.0525 14.7627 -26.2619
LeftForeArm  45.0004 -43.6182 -7.65259
LeftHand  -0.25398 0.0180481 5.50724
RightShoulder  2.6189 6.1697 20.6923
RightArm  -65.0118 48.1659 7.02392
RightForeArm  50.8483 76.0796 42.4879
RightHand  -2.58611 4.69312 -29.6317
LeftUpLeg  -15.0788 -1.60327 -6.36986
LeftLeg  0.395789 7.42365 -5.79697
LeftFoot  6.27385 -1.31699 8.23784
LeftToes  1.06244e-005 4.65856e-005 -8.18505e-006
119
root  -32.2955 40.7743 7.02499 -48.4079 -83.5711 58.3461
RightUpLeg  -2.20364 -14.9533 -19.5951
RightLeg  0.427387 -13.1173 2.72255
RightFoot  0.393719 -1.14114 11.098
RightToes  0.000482159 0.542163 -0.142577
Spine  22.2745 3.7178 16.4601
Spine1  2.74615 10.2713 -15.0051
HEad  -45.9181 -24.1678 9.846
LeftShoulder1  8.59805 -13.9699 -42.7694
LeftArm  -12.1312 14.4824 -26.007
LeftForeArm  44.9793 -46.0815 -8.46767
LeftHand  -0.25398 0.0180481 5.50724
RightShoulder  3.17237 7.33622 23.0747
RightArm  -68.6227 47.2217 5.88453
RightForeArm  70.7822 79.4934 68.4106
RightHand  -3.22741 6.27662 -31.7258
LeftUpLeg  -15.6586 -1.71329 -6.39706
LeftLeg  0.560213 6.63382 -5.73797
LeftFoot  6.08647 -1.34622 8.52442
LeftToes  1.06244e-005 4.65856e-005 -8.18505e-006
120
root  -32.3327 40.7459 7.13967 -59.7996 -84.1445 69.8717
RightUpLeg  -3.35385 -15.3207 -19.8082
RightLeg  1.626 -11.2688 2.56807
RightFoot  0.180361 -1.13635 11.243
RightToes  0.000482159 0.542163 -0.142577
Spine  22.2853 4.15533 18.4846
Spine1  2.36062 11.7288 -18.163
HEad  -44.9583 -23.8464 8.662
LeftShoulder1  8.54425 -13.862 -42.7654
LeftArm  -12.2579 13.6712 -25.8328
LeftForeArm  43.7487 -45.8509 -8.47753
LeftHand  -0.25398 0.0180481 5.50724
RightShoulder  3.30021 8.13844 22.0809
RightArm  -68.0648 49.4181 3.67159
RightForeArm  31.3073 68.8883 31.0809
RightHand  -3.58662 7.64 -31.5988
LeftUpLeg  -15.7997 -1.38136 -6.35481
LeftLeg  0.705632 7.75959 -5.93745
LeftFoot  5.68506 -1.32832 8.62413
LeftToes  1.06244e-005 4.65856e-005 -8.18505e-006
121
root  -32.3535 40.7179 7.26997 -88.282 -84.2218 97.7747
RightUpLeg  -4.45549 -15.5713 -20.372
RightLeg  2.91711 -7.948 2.06961
RightFoot  -0.0375645 -1.15771 11.6578
RightToes  0.000482159 0.542163 -0.142577
Spine  23.1219 4.77166 20.3065
Spine1  1.44623 13.6433 -22.7248
HEad  -41.5264 -24.863 8.13798
LeftShoulder1  8.30699 -13.581 -42.2264
LeftArm  -12.4382 12.6039 -25.6696
LeftForeArm  42.8381 -43.66 -7.80927
LeftHand  -0.25398 0.0180481 5.50724
RightShoulder  2.91915 8.38223 18.0179
RightArm  -58.8937 52.6774 0.72889
RightForeArm  12.5818 43.2326 8.91224
RightHand  -2.79716 6.78357 -26.3507
LeftUpLeg  -15.1837 -0.85175 -6.45317
LeftLeg  0.830288 10.1104 -6.27726
LeftFoot  5.17305 -1.25054 8.38299
LeftToes  1.06244e-005 4.65856e-005 -8.18505e-006
